<svg xmlns="http://www.w3.org/2000/svg" viewBox="0 0 256 256"><defs><style>.cls-1{fill:#ff6b00;}.cls-2{fill:#0000bf;}</style></defs><title>Risorsa 4UniBuk</title><g id="Livello_2" data-name="Livello 2"><g id="Livello_5" data-name="Livello 5"><ellipse class="cls-1" cx="128" cy="127.18" rx="128" ry="127.18"/><path class="cls-2" d="M216.88,27.92V175.18q0,25-10.73,43.35a69.35,69.35,0,0,1-30.79,27.89Q155.29,256,127.92,256q-41.37,0-65.16-21.32T38.49,176.26V27.92h54.9V177.35q.94,36.93,34.53,36.93,17,0,25.66-9.27t8.71-30.14V27.92Z"/><path class="cls-2" d="M112.53,154.87a1.5,1.5,0,0,0,0-3,1.5,1.5,0,0,0,0,3Z"/><path class="cls-2" d="M140.24,154.87a1.5,1.5,0,0,0,0-3,1.5,1.5,0,0,0,0,3Z"/><path class="cls-2" d="M120.89,152.1c-.73,2.83,2.66,3.82,4.81,4.12,2.66.38,4.35-1.06,5.11-3.56.14-.46-.59-.66-.73-.2-.55,1.83-1.71,3.13-3.71,3.1-1.66,0-5.36-.92-4.76-3.26a.37.37,0,0,0-.72-.2Z"/></g></g></svg>